<?xml version="1.0" encoding="utf-8"?>
<!-- Generator: Adobe Illustrator 24.3.0, SVG Export Plug-In . SVG Version: 6.00 Build 0)  -->
<svg version="1.1" id="Layer_1" xmlns="http://www.w3.org/2000/svg" xmlns:xlink="http://www.w3.org/1999/xlink" x="0px" y="0px"
	 viewBox="0 0 300 300" enable-background="new 0 0 300 300" xml:space="preserve">
<g>
	<path d="M247.481,77.397c0.093-5.528-1.909-10.625-5.637-14.352c-2.022-2.022-5.301-2.022-7.322,0c-2.021,2.021-2.021,5.3,0,7.322
		c1.726,1.725,2.65,4.159,2.605,6.856c-0.044,2.572-1.018,5.057-2.605,6.645c-3.294,3.295-36.132,32.123-61.776,54.554l-6.286-6.285
		c18.723-21.421,41.957-47.909,51.043-57.966l2.068,2.068c2.021,2.022,5.3,2.022,7.321,0c2.021-2.021,2.023-5.3,0.001-7.322
		l-5.872-5.872c-0.971-0.971-2.287-1.517-3.66-1.517l0,0c-1.375,0-2.69,0.546-3.662,1.517c-3.15,3.15-22.424,25.04-39.812,44.884
		c-4.678-7.078-10.923-13.168-18.353-17.842c-10.86-6.831-23.521-10.296-37.632-10.296c-3.104,0-6.174,0.196-9.127,0.583
		c-2.836,0.371-4.832,2.971-4.461,5.805c0.371,2.835,2.969,4.833,5.805,4.462c2.508-0.328,5.128-0.495,7.783-0.495
		c21.487,0,39.509,9.632,48.853,25.926c-8.719,9.965-16.213,18.549-19.826,22.69c-6.45,0.879-11.265,3.52-14.658,8.046
		c-3.156,4.209-4.539,9.234-6.003,14.557c-1.766,6.416-3.59,13.051-8.798,18.257c-1.479,1.48-1.924,3.707-1.123,5.643
		c0.803,1.934,2.691,3.196,4.785,3.196c13.933,0,24.976-2.969,32.824-8.828c7.073-5.279,11.286-12.773,12.284-21.773
		c13.34-11.651,70.82-61.884,75.604-66.67C245.339,87.698,247.393,82.67,247.481,77.397z M164.932,145.254
		c-1.554,1.359-3.064,2.677-4.513,3.943l-4.727-4.727c1.265-1.45,2.582-2.96,3.94-4.517L164.932,145.254z M147.764,171.334
		c-4.074,3.041-9.492,5.067-16.183,6.059c2.276-4.577,3.554-9.218,4.673-13.282c2.398-8.721,3.86-13.098,9.774-14.66l9.56,9.561
		C154.534,164.1,151.915,168.236,147.764,171.334z"/>
	<path d="M92.609,95.625c0.754,0,1.521-0.165,2.245-0.514c0.465-0.225,0.942-0.444,1.417-0.655c2.616-1.155,3.801-4.212,2.646-6.827
		c-1.155-2.616-4.212-3.801-6.826-2.646c-0.583,0.257-1.165,0.526-1.735,0.8c-2.575,1.242-3.656,4.337-2.413,6.912
		C88.835,94.547,90.683,95.625,92.609,95.625z"/>
	<path d="M130.025,194.214c-2.858-0.028-5.204,2.26-5.236,5.119c-0.224,19.905-3.229,28.784-20.441,28.784
		c-9.65,0-19.777-7.059-27.785-19.367c-8.83-13.572-13.692-31.192-13.692-49.617c0-23.918,7.222-43.819,20.337-56.038
		c2.093-1.949,2.208-5.225,0.26-7.317c-1.949-2.093-5.225-2.208-7.316-0.259c-7.728,7.198-13.704,16.548-17.768,27.794
		c-3.893,10.775-5.867,22.828-5.867,35.82c0,20.405,5.457,40.031,15.367,55.264c9.954,15.3,23.244,24.075,36.465,24.075
		c12.643,0,21.455-4.448,26.191-13.224c4.066-7.534,4.509-17.267,4.604-25.798C135.177,196.59,132.884,194.246,130.025,194.214z"/>
	<path d="M155.501,117.536c0-9.51-7.737-17.248-17.248-17.248s-17.249,7.738-17.249,17.248c0,9.511,7.738,17.25,17.249,17.25
		S155.501,127.047,155.501,117.536z M131.358,117.536c0-3.801,3.093-6.894,6.895-6.894s6.894,3.092,6.894,6.894
		c0,3.803-3.092,6.896-6.894,6.896S131.358,121.339,131.358,117.536z"/>
	<path d="M97.143,140.985c9.511,0,17.249-7.738,17.249-17.249c0-9.512-7.738-17.249-17.249-17.249
		c-9.511,0-17.249,7.738-17.249,17.249C79.894,133.247,87.633,140.985,97.143,140.985z M97.143,116.842
		c3.803,0,6.896,3.093,6.896,6.895c0,3.801-3.093,6.894-6.896,6.894c-3.801,0-6.895-3.092-6.895-6.894
		C90.249,119.935,93.343,116.842,97.143,116.842z"/>
	<path d="M101.181,163.368c0-9.512-7.739-17.25-17.25-17.25c-9.512,0-17.249,7.738-17.249,17.25c0,9.511,7.737,17.248,17.249,17.248
		C93.441,180.617,101.181,172.879,101.181,163.368z M83.931,170.262c-3.802,0-6.894-3.092-6.894-6.893
		c0-3.802,3.092-6.895,6.894-6.895c3.801,0,6.894,3.092,6.894,6.895C90.824,167.17,87.731,170.262,83.931,170.262z"/>
	<path d="M102.054,220.977c9.512,0,17.25-7.737,17.25-17.249c0-9.511-7.738-17.249-17.25-17.249s-17.249,7.738-17.249,17.249
		C84.805,213.24,92.542,220.977,102.054,220.977z M102.054,196.835c3.801,0,6.895,3.092,6.895,6.894
		c0,3.801-3.094,6.894-6.895,6.894c-3.803,0-6.895-3.093-6.895-6.894C95.159,199.927,98.251,196.835,102.054,196.835z"/>
</g>
</svg>
