<?xml version="1.0" encoding="utf-8"?>
<!-- Generator: Adobe Illustrator 16.0.0, SVG Export Plug-In . SVG Version: 6.00 Build 0)  -->
<!DOCTYPE svg PUBLIC "-//W3C//DTD SVG 1.1//EN" "http://www.w3.org/Graphics/SVG/1.1/DTD/svg11.dtd">
<svg version="1.1"
	 id="GUIDE" xmlns:sodipodi="http://sodipodi.sourceforge.net/DTD/sodipodi-0.dtd" xmlns:inkscape="http://www.inkscape.org/namespaces/inkscape" xmlns:dc="http://purl.org/dc/elements/1.1/" xmlns:svg="http://www.w3.org/2000/svg" xmlns:cc="http://creativecommons.org/ns#" xmlns:rdf="http://www.w3.org/1999/02/22-rdf-syntax-ns#"
	 xmlns="http://www.w3.org/2000/svg" xmlns:xlink="http://www.w3.org/1999/xlink" x="0px" y="0px" width="539.5px" height="539.5px"
	 viewBox="0 0 539.5 539.5" enable-background="new 0 0 539.5 539.5" xml:space="preserve">
<g>
	<path d="M500.062,30.3c-1.154,0.144-2.383,0.288-3.687,0.442c-25.802,3.047-79.493,9.388-134.869,64.764l-19.655,19.655
		l-92.996-1.227l-41.467,41.468l64.473,29.749l-61.614,61.614l-69.114-25.108l-31.571,31.57l59.979,34.245l-16.395,16.395
		l-98.508,1.383l178.839,178.834l1.381-98.504c5.261-5.26,10.744-10.744,16.395-16.395l34.245,59.979l31.571-31.572l-25.108-69.113
		c20.561-20.561,41.725-41.725,61.613-61.614l29.75,64.471l41.468-41.467l-1.226-92.996l19.655-19.654
		c55.371-55.372,61.715-109.061,64.764-134.861c0.154-1.304,0.3-2.536,0.443-3.691l1.184-9.549L500.062,30.3z M399.46,82.606
		l56.66,56.66c-3.1,4.25-6.473,8.541-10.142,12.86l-59.38-59.38C390.918,89.079,395.21,85.706,399.46,82.606z M233.206,150.797
		l21.779-21.78l72.06,0.95l-43.882,43.881L233.206,150.797z M134.059,249.943l10.927-10.926l53.555,19.454l-18.006,18.007
		L134.059,249.943z M90.352,319.75l47.579-0.668l-24.123,24.123L90.352,319.75z M218.976,448.371l-23.455-23.453
		c6.792-6.793,14.953-14.955,24.122-24.123L218.976,448.371z M288.781,404.666l-26.534-46.477
		c5.881-5.881,11.898-11.898,18.006-18.006l19.455,53.555L288.781,404.666z M409.708,283.738l-21.779,21.779l-23.053-49.957
		c2.468-2.468,4.912-4.912,7.323-7.323l36.56-36.559L409.708,283.738z M184.915,414.311l-24.947-24.947l27.914-27.914
		l-10.607-10.605l-27.914,27.914l-24.946-24.947l247.699-247.697c1.118-1.119,2.235-2.209,3.353-3.285l60.431,60.431
		c-1.076,1.117-2.167,2.235-3.285,3.354C432.611,166.613,222.376,376.848,184.915,414.311z M464.667,126.598l-52.54-52.54
		c32.65-20.292,61.798-25.378,80.264-27.722C490.046,64.799,484.958,93.947,464.667,126.598z"/>
	
		<rect x="280.744" y="163.91" transform="matrix(-0.7071 -0.7071 0.7071 -0.7071 314.4028 632.7303)" width="15.001" height="174.68"/>
	<rect x="362.26" y="158.415" transform="matrix(-0.707 -0.7072 0.7072 -0.707 511.1627 551.2327)" width="15" height="22.644"/>
	<rect x="67.029" y="365.365" transform="matrix(0.707 0.7072 -0.7072 0.707 299.8159 62.4543)" width="15" height="55.451"/>
	<rect x="64.192" y="437.477" transform="matrix(-0.707 -0.7072 0.7072 -0.707 -207.8902 847.9423)" width="15" height="59.111"/>
	
		<rect x="101.169" y="422.792" transform="matrix(0.7071 0.7071 -0.7071 0.7071 335.9233 49.1189)" width="15.001" height="14.526"/>
	
		<rect x="33.198" y="420.106" transform="matrix(0.7071 -0.7071 0.7071 0.7071 -290.6302 153.5192)" width="13.629" height="15.001"/>
	<rect x="136.598" y="438.019" transform="matrix(-0.707 -0.7072 0.7072 -0.707 -83.3789 896.9452)" width="15" height="55.449"/>
	
		<rect x="102.081" y="493.445" transform="matrix(-0.7071 -0.7071 0.7071 -0.7071 -166.6697 931.4827)" width="15.001" height="13.63"/>
</g>
</svg>
