<?xml version="1.0" encoding="utf-8"?>
<!-- Generator: Adobe Illustrator 16.0.0, SVG Export Plug-In . SVG Version: 6.00 Build 0)  -->
<!DOCTYPE svg PUBLIC "-//W3C//DTD SVG 1.1//EN" "http://www.w3.org/Graphics/SVG/1.1/DTD/svg11.dtd">
<svg version="1.1" id="Layer_1" xmlns="http://www.w3.org/2000/svg" xmlns:xlink="http://www.w3.org/1999/xlink" x="0px" y="0px"
	 width="128px" height="128px" viewBox="0 0 128 128" enable-background="new 0 0 128 128" xml:space="preserve">
<g>
	<g>
		<g>
			<polygon fill="#282D33" points="54.072,18.468 50.075,18.468 50.075,17.133 47.292,11.598 44.509,17.133 44.509,18.468 
				40.511,18.468 40.511,16.184 47.292,2.7 54.072,16.184 			"/>
		</g>
		<g>
			<polygon fill="#282D33" points="54.065,46.954 50.068,46.954 50.068,21.361 44.526,21.361 44.526,46.954 40.529,46.954 
				40.529,17.363 54.065,17.363 			"/>
		</g>
	</g>
	<g>
		<g>
			<polygon fill="#282D33" points="86.057,46.954 82.059,46.954 82.059,3.997 65.707,3.997 65.707,46.954 61.71,46.954 61.71,0 
				86.057,0 			"/>
		</g>
		<g>
			<rect x="74.272" y="8.515" fill="#282D33" width="9.785" height="3.997"/>
		</g>
		<g>
			<rect x="78.79" y="17.03" fill="#282D33" width="5.268" height="3.997"/>
		</g>
		<g>
			<rect x="74.272" y="25.544" fill="#282D33" width="9.785" height="3.997"/>
		</g>
		<g>
			<rect x="78.79" y="34.059" fill="#282D33" width="5.268" height="3.997"/>
		</g>
		<g>
			<rect x="74.272" y="42.574" fill="#282D33" width="9.785" height="3.997"/>
		</g>
	</g>
	<g>
		<path fill="#282D33" d="M64,128l-0.553-0.159C47.078,123.127,28.29,114.572,28.29,90.07V51.176l71.42,0.001v38.895
			c0,24.502-18.788,33.056-35.156,37.77L64,128z M32.287,55.173V90.07c0,17.127,9.492,27.248,31.713,33.768
			c22.222-6.52,31.712-16.64,31.712-33.767V55.174L32.287,55.173z"/>
	</g>
	<g>
		<g>
			<polygon fill="#282D33" points="39.657,62.471 35.689,62.44 35.689,58.474 39.657,58.474 			"/>
		</g>
		<g>
			<path fill="#282D33" d="M85.235,62.471h-3.803v-3.997h3.803V62.471z M77.629,62.471h-3.803v-3.997h3.803V62.471z M70.022,62.471
				H66.22v-3.997h3.803V62.471z M62.417,62.471h-3.803v-3.997h3.803V62.471z M54.811,62.471h-3.803v-3.997h3.803V62.471z
				 M47.205,62.471h-3.804v-3.997h3.804V62.471z"/>
		</g>
		<g>
			<polygon fill="#282D33" points="90.313,62.471 88.313,62.44 88.344,58.474 92.312,58.474 92.312,62.44 			"/>
		</g>
		<g>
			<path fill="#282D33" d="M64.001,120.387l-0.592-0.183c-0.999-0.31-1.968-0.626-2.905-0.951l1.31-3.776
				c0.71,0.245,1.438,0.486,2.186,0.724c0.13-0.041,0.259-0.083,0.387-0.124l0.088,0.272c0.039,0.013,0.079,0.024,0.118,0.037
				l-0.052,0.166l1.073,3.329c-0.338,0.108-0.678,0.217-1.021,0.323L64.001,120.387z M69.516,118.526l-1.405-3.742
				c1.271-0.478,2.489-0.977,3.622-1.483l1.634,3.648C72.158,117.489,70.863,118.021,69.516,118.526z M56.624,117.8
				c-1.339-0.546-2.621-1.119-3.813-1.705l1.764-3.587c1.108,0.544,2.306,1.08,3.558,1.59L56.624,117.8z M77.128,115.09
				l-1.922-3.506c1.171-0.641,2.267-1.315,3.258-2.004l2.279,3.283C79.638,113.632,78.422,114.38,77.128,115.09z M49.109,114.069
				c-1.259-0.77-2.44-1.588-3.512-2.434l2.478-3.139c0.946,0.748,1.996,1.475,3.119,2.162L49.109,114.069z M84.11,110.181
				l-2.705-2.943c0.934-0.857,1.778-1.771,2.51-2.712l3.156,2.451C86.204,108.095,85.207,109.173,84.11,110.181z M42.402,108.707
				c-1.015-1.088-1.922-2.253-2.697-3.46l3.362-2.16c0.646,1.007,1.407,1.979,2.259,2.894L42.402,108.707z M89.438,103.269
				l-3.557-1.827c0.547-1.065,1.007-2.21,1.366-3.403l3.827,1.153C90.646,100.615,90.095,101.987,89.438,103.269z M37.682,101.339
				c-0.533-1.316-0.964-2.723-1.28-4.179l3.906-0.85c0.269,1.234,0.632,2.422,1.079,3.529L37.682,101.339z M91.992,94.948
				l-3.961-0.549c0.165-1.187,0.258-2.458,0.278-3.777l3.998,0.061C92.284,92.165,92.179,93.6,91.992,94.948z M35.792,92.895
				c-0.068-0.91-0.103-1.861-0.103-2.823V88.71h3.997v1.361c0,0.864,0.03,1.713,0.092,2.524L35.792,92.895z M92.312,86.612h-3.998
				v-4.038h3.998V86.612z M39.687,84.672h-3.997v-4.04h3.997V84.672z M92.312,78.535h-3.998v-4.039h3.998V78.535z M39.687,76.594
				h-3.997v-4.04h3.997V76.594z M92.312,70.457h-3.998v-4.039h3.998V70.457z M39.687,68.516h-3.997v-4.039h3.997V68.516z"/>
		</g>
	</g>
</g>
</svg>
